<svg width="19" height="19" viewBox="0 0 19 19" fill="none" xmlns="http://www.w3.org/2000/svg">
<mask id="mask0_223_581" style="mask-type:alpha" maskUnits="userSpaceOnUse" x="0" y="0" width="19" height="19">
<rect x="18.7979" y="18.7979" width="18.7978" height="18.7978" transform="rotate(-180 18.7979 18.7979)" fill="#D9D9D9"/>
</mask>
<g mask="url(#mask0_223_581)">
<path d="M11.6043 9.79806L5.70434 3.89811C5.54874 3.7425 5.47289 3.55929 5.47681 3.34847C5.48085 3.13752 5.56068 2.95424 5.71628 2.79864C5.87202 2.64303 6.0553 2.56523 6.26612 2.56523C6.47694 2.56523 6.66022 2.64303 6.81595 2.79864L12.8242 8.79492C12.9658 8.93656 13.0708 9.09523 13.139 9.27094C13.2073 9.44664 13.2415 9.62235 13.2415 9.79806C13.2415 9.97377 13.2073 10.1495 13.139 10.3252C13.0708 10.5009 12.9658 10.6596 12.8242 10.8012L6.81595 16.8096C6.66022 16.9652 6.47492 17.041 6.26005 17.037C6.04518 17.0329 5.85994 16.9531 5.70434 16.7975C5.54874 16.6419 5.47093 16.4586 5.47093 16.2476C5.47093 16.0368 5.54874 15.8536 5.70434 15.698L11.6043 9.79806Z" fill="#454545"/>
</g>
</svg>
