<svg width="142" height="133" viewBox="0 0 142 133" fill="none" xmlns="http://www.w3.org/2000/svg">
<path d="M103.17 52.0011C108.09 34.3532 127.41 10.0849 134.181 28.063C137.324 36.4112 138.808 59.307 111.897 88.8726C102.157 86.157 98.2495 69.6491 103.17 52.0011Z" fill="url(#paint0_linear_1_1245)"/>
<path d="M12.5647 57.9365C5.99698 74.0854 5.26425 101.011 26.4995 95.8455L44.1272 36.6963C33.2634 32.278 19.1324 41.7876 12.5647 57.9365Z" fill="#4574C6"/>
<path d="M94.7517 5.17502C108.839 0.704158 111.229 28.0256 110.663 42.2451L78.058 16.3271C85.5826 9.06639 92.3224 5.86708 94.7517 5.17502Z" fill="url(#paint1_linear_1_1245)"/>
<path d="M47.1319 4.48045C33.034 -0.0611158 30.4658 27.2523 30.944 41.4766L63.8011 15.7172C56.3016 8.41799 49.5635 5.1847 47.1319 4.48045Z" fill="url(#paint2_linear_1_1245)"/>
<rect x="51.0703" y="102.812" width="10.5" height="24.0625" fill="url(#paint3_linear_1_1245)"/>
<rect x="77.3198" y="102.812" width="10.5" height="24.0625" fill="url(#paint4_linear_1_1245)"/>
<path d="M122.82 73.1152C122.82 104.52 98.6942 114.625 69.2617 114.625C39.8293 114.625 16.0703 104.52 16.0703 73.1152C16.0703 41.7108 39.8293 13.5625 69.2617 13.5625C98.6942 13.5625 122.82 41.7108 122.82 73.1152Z" fill="#4574C6"/>
<path d="M16.0703 73.1152C16.0703 104.52 39.9387 114.625 69.5066 114.625C70.8134 114.552 73.8225 113.925 75.4048 112C76.987 110.075 77.7718 104.781 76.5036 100.844C73.4505 91.3646 68.5923 71.0938 68.5923 62.5625C68.5923 57.0938 71.1042 41.5625 76.5036 31.9375C79.5304 26.5417 82.3687 15.3125 69.5066 13.5625C39.9387 13.5625 16.0703 41.7108 16.0703 73.1152Z" fill="url(#paint5_linear_1_1245)"/>
<g filter="url(#filter0_d_1_1245)">
<ellipse cx="52.0746" cy="57.1823" rx="23.7089" ry="23.4694" fill="white"/>
<ellipse cx="86.5604" cy="57.1818" rx="23.7089" ry="23.4694" fill="white"/>
</g>
<circle cx="53.2573" cy="54.687" r="5.25" fill="black"/>
<circle cx="86.5078" cy="54.687" r="5.25" fill="black"/>
<g filter="url(#filter1_d_1_1245)">
<path d="M62.9715 66.3711L69.455 60.9186L75.961 66.3711L69.455 71.8756L62.9715 66.3711Z" fill="url(#paint6_linear_1_1245)"/>
</g>
<ellipse cx="50.6323" cy="127.312" rx="10.9375" ry="5.6875" fill="#FFB700"/>
<ellipse cx="88.2573" cy="127.312" rx="10.9375" ry="5.6875" fill="#FFB700"/>
<path d="M103.17 52.0011C108.09 34.3532 127.41 10.0849 134.181 28.063C137.324 36.4112 138.808 59.307 111.897 88.8726C102.157 86.157 98.2495 69.6491 103.17 52.0011Z" fill="url(#paint7_linear_1_1245)"/>
<path d="M12.5647 57.9365C5.99698 74.0854 5.26425 101.011 26.4995 95.8455L44.1272 36.6963C33.2634 32.278 19.1324 41.7876 12.5647 57.9365Z" fill="#4574C6"/>
<path d="M94.7517 5.17502C108.839 0.704158 111.229 28.0256 110.663 42.2451L78.058 16.3271C85.5826 9.06639 92.3224 5.86708 94.7517 5.17502Z" fill="url(#paint8_linear_1_1245)"/>
<path d="M47.1319 4.48045C33.034 -0.0611158 30.4658 27.2523 30.944 41.4766L63.8011 15.7172C56.3016 8.41799 49.5635 5.1847 47.1319 4.48045Z" fill="url(#paint9_linear_1_1245)"/>
<rect x="51.0703" y="102.812" width="10.5" height="24.0625" fill="url(#paint10_linear_1_1245)"/>
<rect x="77.3198" y="102.812" width="10.5" height="24.0625" fill="url(#paint11_linear_1_1245)"/>
<path d="M122.82 73.1152C122.82 104.52 98.6942 114.625 69.2617 114.625C39.8293 114.625 16.0703 104.52 16.0703 73.1152C16.0703 41.7108 39.8293 13.5625 69.2617 13.5625C98.6942 13.5625 122.82 41.7108 122.82 73.1152Z" fill="#4574C6"/>
<path d="M16.0703 73.1152C16.0703 104.52 39.9387 114.625 69.5066 114.625C70.8134 114.552 73.8225 113.925 75.4048 112C76.987 110.075 77.7718 104.781 76.5036 100.844C73.4505 91.3646 68.5923 71.0938 68.5923 62.5625C68.5923 57.0938 71.1042 41.5625 76.5036 31.9375C79.5304 26.5417 82.3687 15.3125 69.5066 13.5625C39.9387 13.5625 16.0703 41.7108 16.0703 73.1152Z" fill="url(#paint12_linear_1_1245)"/>
<g filter="url(#filter2_d_1_1245)">
<ellipse cx="52.0746" cy="57.1823" rx="23.7089" ry="23.4694" fill="white"/>
<ellipse cx="86.5604" cy="57.1818" rx="23.7089" ry="23.4694" fill="white"/>
</g>
<circle cx="53.2573" cy="54.687" r="5.25" fill="black"/>
<circle cx="86.5078" cy="54.687" r="5.25" fill="black"/>
<g filter="url(#filter3_d_1_1245)">
<path d="M62.9715 66.3711L69.455 60.9186L75.961 66.3711L69.455 71.8756L62.9715 66.3711Z" fill="url(#paint13_linear_1_1245)"/>
</g>
<ellipse cx="50.6323" cy="127.312" rx="10.9375" ry="5.6875" fill="#FFB700"/>
<ellipse cx="88.2573" cy="127.312" rx="10.9375" ry="5.6875" fill="#FFB700"/>
<circle cx="51.5014" cy="53.0214" r="1.71037" fill="white"/>
<circle cx="84.9487" cy="53.0214" r="1.71037" fill="white"/>
<defs>
<filter id="filter0_d_1_1245" x="24.3657" y="33.7124" width="89.9033" height="54.9395" filterUnits="userSpaceOnUse" color-interpolation-filters="sRGB">
<feFlood flood-opacity="0" result="BackgroundImageFix"/>
<feColorMatrix in="SourceAlpha" type="matrix" values="0 0 0 0 0 0 0 0 0 0 0 0 0 0 0 0 0 0 127 0" result="hardAlpha"/>
<feOffset dy="4"/>
<feGaussianBlur stdDeviation="2"/>
<feComposite in2="hardAlpha" operator="out"/>
<feColorMatrix type="matrix" values="0 0 0 0 0 0 0 0 0 0 0 0 0 0 0 0 0 0 0.1 0"/>
<feBlend mode="normal" in2="BackgroundImageFix" result="effect1_dropShadow_1_1245"/>
<feBlend mode="normal" in="SourceGraphic" in2="effect1_dropShadow_1_1245" result="shape"/>
</filter>
<filter id="filter1_d_1_1245" x="58.9717" y="56.9185" width="20.9893" height="18.957" filterUnits="userSpaceOnUse" color-interpolation-filters="sRGB">
<feFlood flood-opacity="0" result="BackgroundImageFix"/>
<feColorMatrix in="SourceAlpha" type="matrix" values="0 0 0 0 0 0 0 0 0 0 0 0 0 0 0 0 0 0 127 0" result="hardAlpha"/>
<feOffset/>
<feGaussianBlur stdDeviation="2"/>
<feComposite in2="hardAlpha" operator="out"/>
<feColorMatrix type="matrix" values="0 0 0 0 0 0 0 0 0 0 0 0 0 0 0 0 0 0 0.1 0"/>
<feBlend mode="normal" in2="BackgroundImageFix" result="effect1_dropShadow_1_1245"/>
<feBlend mode="normal" in="SourceGraphic" in2="effect1_dropShadow_1_1245" result="shape"/>
</filter>
<filter id="filter2_d_1_1245" x="24.3657" y="33.7124" width="89.9033" height="54.9395" filterUnits="userSpaceOnUse" color-interpolation-filters="sRGB">
<feFlood flood-opacity="0" result="BackgroundImageFix"/>
<feColorMatrix in="SourceAlpha" type="matrix" values="0 0 0 0 0 0 0 0 0 0 0 0 0 0 0 0 0 0 127 0" result="hardAlpha"/>
<feOffset dy="4"/>
<feGaussianBlur stdDeviation="2"/>
<feComposite in2="hardAlpha" operator="out"/>
<feColorMatrix type="matrix" values="0 0 0 0 0 0 0 0 0 0 0 0 0 0 0 0 0 0 0.1 0"/>
<feBlend mode="normal" in2="BackgroundImageFix" result="effect1_dropShadow_1_1245"/>
<feBlend mode="normal" in="SourceGraphic" in2="effect1_dropShadow_1_1245" result="shape"/>
</filter>
<filter id="filter3_d_1_1245" x="58.9717" y="56.9185" width="20.9893" height="18.957" filterUnits="userSpaceOnUse" color-interpolation-filters="sRGB">
<feFlood flood-opacity="0" result="BackgroundImageFix"/>
<feColorMatrix in="SourceAlpha" type="matrix" values="0 0 0 0 0 0 0 0 0 0 0 0 0 0 0 0 0 0 127 0" result="hardAlpha"/>
<feOffset/>
<feGaussianBlur stdDeviation="2"/>
<feComposite in2="hardAlpha" operator="out"/>
<feColorMatrix type="matrix" values="0 0 0 0 0 0 0 0 0 0 0 0 0 0 0 0 0 0 0.1 0"/>
<feBlend mode="normal" in2="BackgroundImageFix" result="effect1_dropShadow_1_1245"/>
<feBlend mode="normal" in="SourceGraphic" in2="effect1_dropShadow_1_1245" result="shape"/>
</filter>
<linearGradient id="paint0_linear_1_1245" x1="116.504" y1="-4.85184" x2="140.567" y2="48.7934" gradientUnits="userSpaceOnUse">
<stop offset="0.580027" stop-color="#4574C6"/>
<stop offset="1" stop-color="#345FAA"/>
</linearGradient>
<linearGradient id="paint1_linear_1_1245" x1="98.3203" y1="13.5624" x2="68.3516" y2="51.8436" gradientUnits="userSpaceOnUse">
<stop stop-color="#4574C6"/>
<stop offset="1" stop-color="#213860"/>
</linearGradient>
<linearGradient id="paint2_linear_1_1245" x1="42.3202" y1="16.4063" x2="63.3202" y2="56.875" gradientUnits="userSpaceOnUse">
<stop stop-color="#4574C6"/>
<stop offset="1" stop-color="#183C7B"/>
</linearGradient>
<linearGradient id="paint3_linear_1_1245" x1="56.3203" y1="102.812" x2="56.3203" y2="120.313" gradientUnits="userSpaceOnUse">
<stop stop-color="#FF8800"/>
<stop offset="1" stop-color="#FFB700"/>
</linearGradient>
<linearGradient id="paint4_linear_1_1245" x1="82.5698" y1="101.719" x2="82.5698" y2="118.344" gradientUnits="userSpaceOnUse">
<stop stop-color="#FF8400"/>
<stop offset="1" stop-color="#FFB700"/>
</linearGradient>
<linearGradient id="paint5_linear_1_1245" x1="51.0703" y1="74.375" x2="-20.5122" y2="114.604" gradientUnits="userSpaceOnUse">
<stop stop-color="#4574C6" stop-opacity="0.5"/>
<stop offset="0.793424" stop-color="#183C7B"/>
<stop offset="1" stop-color="#001B3F"/>
</linearGradient>
<linearGradient id="paint6_linear_1_1245" x1="67.9142" y1="63.0003" x2="86.7267" y2="78.3128" gradientUnits="userSpaceOnUse">
<stop stop-color="#FFB700"/>
<stop offset="1" stop-color="#FF7700"/>
</linearGradient>
<linearGradient id="paint7_linear_1_1245" x1="116.504" y1="-4.85184" x2="140.567" y2="48.7934" gradientUnits="userSpaceOnUse">
<stop offset="0.580027" stop-color="#4574C6"/>
<stop offset="1" stop-color="#345FAA"/>
</linearGradient>
<linearGradient id="paint8_linear_1_1245" x1="98.3203" y1="13.5624" x2="68.3516" y2="51.8436" gradientUnits="userSpaceOnUse">
<stop stop-color="#4574C6"/>
<stop offset="1" stop-color="#213860"/>
</linearGradient>
<linearGradient id="paint9_linear_1_1245" x1="42.3202" y1="16.4063" x2="63.3202" y2="56.875" gradientUnits="userSpaceOnUse">
<stop stop-color="#4574C6"/>
<stop offset="1" stop-color="#183C7B"/>
</linearGradient>
<linearGradient id="paint10_linear_1_1245" x1="56.3203" y1="102.812" x2="56.3203" y2="120.313" gradientUnits="userSpaceOnUse">
<stop stop-color="#FF8800"/>
<stop offset="1" stop-color="#FFB700"/>
</linearGradient>
<linearGradient id="paint11_linear_1_1245" x1="82.5698" y1="101.719" x2="82.5698" y2="118.344" gradientUnits="userSpaceOnUse">
<stop stop-color="#FF8400"/>
<stop offset="1" stop-color="#FFB700"/>
</linearGradient>
<linearGradient id="paint12_linear_1_1245" x1="51.0703" y1="74.375" x2="-20.5122" y2="114.604" gradientUnits="userSpaceOnUse">
<stop stop-color="#4574C6" stop-opacity="0.5"/>
<stop offset="0.793424" stop-color="#183C7B"/>
<stop offset="1" stop-color="#001B3F"/>
</linearGradient>
<linearGradient id="paint13_linear_1_1245" x1="67.9142" y1="63.0003" x2="86.7267" y2="78.3128" gradientUnits="userSpaceOnUse">
<stop stop-color="#FFB700"/>
<stop offset="1" stop-color="#FF7700"/>
</linearGradient>
</defs>
</svg>
