<svg width="68" height="68" viewBox="0 0 68 68" fill="none" xmlns="http://www.w3.org/2000/svg">
<g filter="url(#filter0_d_1_906)">
<g clip-path="url(#clip0_1_906)">
<rect x="4.66675" y="4.6665" width="58" height="58" rx="29" fill="#FFE89F"/>
<path d="M63.2961 43.3553C67.0566 51.6332 67.5574 65.851 55.5511 63.9817L45.407 33.4001C51.5265 30.6203 59.5357 35.0773 63.2961 43.3553Z" fill="url(#paint0_linear_1_906)"/>
<path d="M4.55363 44.215C1.12836 52.6372 0.746221 66.6797 11.8211 63.9858L21.0145 33.1376C15.3487 30.8333 7.97889 35.7928 4.55363 44.215Z" fill="#4574C6"/>
<path d="M47.4165 16.6984C54.7636 14.3667 56.0101 28.6157 55.7149 36.0316L38.7101 22.5145C42.6344 18.7278 46.1495 17.0593 47.4165 16.6984Z" fill="url(#paint1_linear_1_906)"/>
<path d="M22.5808 16.3356C15.2283 13.967 13.8889 28.2118 14.1383 35.6302L31.2743 22.1959C27.3631 18.3891 23.849 16.7028 22.5808 16.3356Z" fill="url(#paint2_linear_1_906)"/>
<path d="M62.0547 52.1309C62.0547 68.5093 49.4721 73.7796 34.1221 73.7796C18.7722 73.7796 6.3811 68.5093 6.3811 52.1309C6.3811 35.7525 18.7722 21.0723 34.1221 21.0723C49.4721 21.0723 62.0547 35.7525 62.0547 52.1309Z" fill="#4574C6"/>
<path d="M6.3811 52.1309C6.3811 68.5093 18.8292 73.7796 34.2499 73.7796C34.9314 73.7416 36.5007 73.4145 37.3259 72.4106C38.1511 71.4066 38.5604 68.6458 37.899 66.5922C36.3067 61.6485 33.773 51.0767 33.773 46.6273C33.773 43.7752 35.0831 35.6752 37.899 30.6554C39.4776 27.8413 40.9578 21.9849 34.2499 21.0723C18.8292 21.0723 6.3811 35.7525 6.3811 52.1309Z" fill="url(#paint3_linear_1_906)"/>
<g filter="url(#filter1_d_1_906)">
<ellipse cx="25.1589" cy="43.8211" rx="12.3649" ry="12.24" fill="white"/>
<ellipse cx="43.144" cy="43.8211" rx="12.3649" ry="12.24" fill="white"/>
</g>
<circle cx="25.7754" cy="42.5212" r="2.73804" fill="black"/>
<circle cx="43.1167" cy="42.5212" r="2.73804" fill="black"/>
<g filter="url(#filter2_d_1_906)">
<path d="M30.8416 48.6139L34.223 45.7702L37.6161 48.6139L34.223 51.4847L30.8416 48.6139Z" fill="url(#paint4_linear_1_906)"/>
</g>
<path d="M63.2961 43.3553C67.0566 51.6332 67.5574 65.851 55.5511 63.9817L45.407 33.4001C51.5265 30.6203 59.5357 35.0773 63.2961 43.3553Z" fill="url(#paint5_linear_1_906)"/>
<path d="M4.55363 44.215C1.12836 52.6372 0.746221 66.6797 11.8211 63.9858L21.0145 33.1376C15.3487 30.8333 7.97889 35.7928 4.55363 44.215Z" fill="#4574C6"/>
<path d="M47.4165 16.6984C54.7636 14.3667 56.0101 28.6157 55.7149 36.0316L38.7101 22.5145C42.6344 18.7278 46.1495 17.0593 47.4165 16.6984Z" fill="url(#paint6_linear_1_906)"/>
<path d="M22.5808 16.3356C15.2283 13.967 13.8889 28.2118 14.1383 35.6302L31.2743 22.1959C27.3631 18.3891 23.849 16.7028 22.5808 16.3356Z" fill="url(#paint7_linear_1_906)"/>
<path d="M62.0547 52.1309C62.0547 68.5093 49.4721 73.7796 34.1221 73.7796C18.7722 73.7796 6.3811 68.5093 6.3811 52.1309C6.3811 35.7525 18.7722 21.0723 34.1221 21.0723C49.4721 21.0723 62.0547 35.7525 62.0547 52.1309Z" fill="#4574C6"/>
<path d="M6.3811 52.1309C6.3811 68.5093 18.8292 73.7796 34.2499 73.7796C34.9314 73.7416 36.5007 73.4145 37.3259 72.4106C38.1511 71.4066 38.5604 68.6458 37.899 66.5922C36.3067 61.6485 33.773 51.0767 33.773 46.6273C33.773 43.7752 35.0831 35.6752 37.899 30.6554C39.4776 27.8413 40.9578 21.9849 34.2499 21.0723C18.8292 21.0723 6.3811 35.7525 6.3811 52.1309Z" fill="url(#paint8_linear_1_906)"/>
<ellipse cx="25.1589" cy="43.8216" rx="12.3649" ry="12.24" fill="white"/>
<ellipse cx="43.144" cy="43.8216" rx="12.3649" ry="12.24" fill="white"/>
<circle cx="25.7754" cy="42.5212" r="2.73804" fill="black"/>
<circle cx="43.1167" cy="42.5212" r="2.73804" fill="black"/>
<g filter="url(#filter3_d_1_906)">
<path d="M30.8416 48.6139L34.223 45.7702L37.6161 48.6139L34.223 51.4847L30.8416 48.6139Z" fill="url(#paint9_linear_1_906)"/>
</g>
<circle cx="24.4633" cy="41.6518" r="0.892014" fill="white"/>
<circle cx="41.9074" cy="41.6518" r="0.892014" fill="white"/>
</g>
</g>
<defs>
<filter id="filter0_d_1_906" x="8.11815e-05" y="-0.000162959" width="67.3333" height="67.3333" filterUnits="userSpaceOnUse" color-interpolation-filters="sRGB">
<feFlood flood-opacity="0" result="BackgroundImageFix"/>
<feColorMatrix in="SourceAlpha" type="matrix" values="0 0 0 0 0 0 0 0 0 0 0 0 0 0 0 0 0 0 127 0" result="hardAlpha"/>
<feMorphology radius="1.33333" operator="dilate" in="SourceAlpha" result="effect1_dropShadow_1_906"/>
<feOffset/>
<feGaussianBlur stdDeviation="1.66667"/>
<feComposite in2="hardAlpha" operator="out"/>
<feColorMatrix type="matrix" values="0 0 0 0 0.533333 0 0 0 0 0.533333 0 0 0 0 0.533333 0 0 0 0.25 0"/>
<feBlend mode="normal" in2="BackgroundImageFix" result="effect1_dropShadow_1_906"/>
<feBlend mode="normal" in="SourceGraphic" in2="effect1_dropShadow_1_906" result="shape"/>
</filter>
<filter id="filter1_d_1_906" x="12.001" y="31.5811" width="44.3006" height="26.0658" filterUnits="userSpaceOnUse" color-interpolation-filters="sRGB">
<feFlood flood-opacity="0" result="BackgroundImageFix"/>
<feColorMatrix in="SourceAlpha" type="matrix" values="0 0 0 0 0 0 0 0 0 0 0 0 0 0 0 0 0 0 127 0" result="hardAlpha"/>
<feOffset dy="0.792901"/>
<feGaussianBlur stdDeviation="0.39645"/>
<feComposite in2="hardAlpha" operator="out"/>
<feColorMatrix type="matrix" values="0 0 0 0 0 0 0 0 0 0 0 0 0 0 0 0 0 0 0.1 0"/>
<feBlend mode="normal" in2="BackgroundImageFix" result="effect1_dropShadow_1_906"/>
<feBlend mode="normal" in="SourceGraphic" in2="effect1_dropShadow_1_906" result="shape"/>
</filter>
<filter id="filter2_d_1_906" x="30.0487" y="44.9771" width="8.36022" height="7.30065" filterUnits="userSpaceOnUse" color-interpolation-filters="sRGB">
<feFlood flood-opacity="0" result="BackgroundImageFix"/>
<feColorMatrix in="SourceAlpha" type="matrix" values="0 0 0 0 0 0 0 0 0 0 0 0 0 0 0 0 0 0 127 0" result="hardAlpha"/>
<feOffset/>
<feGaussianBlur stdDeviation="0.39645"/>
<feComposite in2="hardAlpha" operator="out"/>
<feColorMatrix type="matrix" values="0 0 0 0 0 0 0 0 0 0 0 0 0 0 0 0 0 0 0.1 0"/>
<feBlend mode="normal" in2="BackgroundImageFix" result="effect1_dropShadow_1_906"/>
<feBlend mode="normal" in="SourceGraphic" in2="effect1_dropShadow_1_906" result="shape"/>
</filter>
<filter id="filter3_d_1_906" x="30.0487" y="44.9771" width="8.36022" height="7.30065" filterUnits="userSpaceOnUse" color-interpolation-filters="sRGB">
<feFlood flood-opacity="0" result="BackgroundImageFix"/>
<feColorMatrix in="SourceAlpha" type="matrix" values="0 0 0 0 0 0 0 0 0 0 0 0 0 0 0 0 0 0 127 0" result="hardAlpha"/>
<feOffset/>
<feGaussianBlur stdDeviation="0.39645"/>
<feComposite in2="hardAlpha" operator="out"/>
<feColorMatrix type="matrix" values="0 0 0 0 0 0 0 0 0 0 0 0 0 0 0 0 0 0 0.1 0"/>
<feBlend mode="normal" in2="BackgroundImageFix" result="effect1_dropShadow_1_906"/>
<feBlend mode="normal" in="SourceGraphic" in2="effect1_dropShadow_1_906" result="shape"/>
</filter>
<linearGradient id="paint0_linear_1_906" x1="76.7391" y1="69.0507" x2="54.2728" y2="67.5776" gradientUnits="userSpaceOnUse">
<stop offset="0.580027" stop-color="#4574C6"/>
<stop offset="1" stop-color="#345FAA"/>
</linearGradient>
<linearGradient id="paint1_linear_1_906" x1="49.2776" y1="21.0726" x2="33.6479" y2="41.0375" gradientUnits="userSpaceOnUse">
<stop stop-color="#4574C6"/>
<stop offset="1" stop-color="#213860"/>
</linearGradient>
<linearGradient id="paint2_linear_1_906" x1="20.0713" y1="22.5553" x2="31.0235" y2="43.661" gradientUnits="userSpaceOnUse">
<stop stop-color="#4574C6"/>
<stop offset="1" stop-color="#183C7B"/>
</linearGradient>
<linearGradient id="paint3_linear_1_906" x1="24.6347" y1="52.7879" x2="-12.6979" y2="73.7684" gradientUnits="userSpaceOnUse">
<stop stop-color="#4574C6" stop-opacity="0.5"/>
<stop offset="0.793424" stop-color="#183C7B"/>
<stop offset="1" stop-color="#001B3F"/>
</linearGradient>
<linearGradient id="paint4_linear_1_906" x1="33.4194" y1="46.8559" x2="43.2307" y2="54.8419" gradientUnits="userSpaceOnUse">
<stop stop-color="#FFB700"/>
<stop offset="1" stop-color="#FF7700"/>
</linearGradient>
<linearGradient id="paint5_linear_1_906" x1="76.7391" y1="69.0507" x2="54.2728" y2="67.5776" gradientUnits="userSpaceOnUse">
<stop offset="0.580027" stop-color="#4574C6"/>
<stop offset="1" stop-color="#345FAA"/>
</linearGradient>
<linearGradient id="paint6_linear_1_906" x1="49.2776" y1="21.0726" x2="33.6479" y2="41.0375" gradientUnits="userSpaceOnUse">
<stop stop-color="#4574C6"/>
<stop offset="1" stop-color="#213860"/>
</linearGradient>
<linearGradient id="paint7_linear_1_906" x1="20.0713" y1="22.5553" x2="31.0235" y2="43.661" gradientUnits="userSpaceOnUse">
<stop stop-color="#4574C6"/>
<stop offset="1" stop-color="#183C7B"/>
</linearGradient>
<linearGradient id="paint8_linear_1_906" x1="24.6347" y1="52.7879" x2="-12.6979" y2="73.7684" gradientUnits="userSpaceOnUse">
<stop stop-color="#4574C6" stop-opacity="0.5"/>
<stop offset="0.793424" stop-color="#183C7B"/>
<stop offset="1" stop-color="#001B3F"/>
</linearGradient>
<linearGradient id="paint9_linear_1_906" x1="33.4194" y1="46.8559" x2="43.2307" y2="54.8419" gradientUnits="userSpaceOnUse">
<stop stop-color="#FFB700"/>
<stop offset="1" stop-color="#FF7700"/>
</linearGradient>
<clipPath id="clip0_1_906">
<rect x="4.66675" y="4.6665" width="58" height="58" rx="29" fill="white"/>
</clipPath>
</defs>
</svg>
